<svg xmlns="http://www.w3.org/2000/svg" xmlns:xlink="http://www.w3.org/1999/xlink" width="500" zoomAndPan="magnify" viewBox="0 0 375 374.999991" height="500" preserveAspectRatio="xMidYMid meet" version="1.0"><defs><clipPath id="6f4fcefd53"><path d="M 37.5 93 L 330.75 93 L 330.75 362 L 37.5 362 Z M 37.5 93 " clip-rule="nonzero"/></clipPath></defs><g clip-path="url(#6f4fcefd53)"><path fill="#38b6ff" d="M 289.222656 104.855469 C 288.132812 98.464844 282.59375 93.789062 276.109375 93.789062 L 92.429688 93.789062 C 85.945312 93.789062 80.40625 98.464844 79.316406 104.855469 L 38.117188 346.367188 C 36.730469 354.488281 42.992188 361.90625 51.230469 361.90625 L 115.226562 361.90625 C 120.367188 361.90625 124.539062 357.734375 124.539062 352.59375 L 124.539062 197.144531 C 124.539062 189.554688 130.691406 183.398438 138.28125 183.398438 L 230.375 183.398438 C 237.964844 183.398438 244.121094 189.554688 244.121094 197.144531 L 244.121094 352.59375 C 244.121094 357.734375 248.289062 361.90625 253.433594 361.90625 L 317.300781 361.90625 C 325.542969 361.90625 331.800781 354.488281 330.414062 346.367188 Z M 289.222656 104.855469 " fill-opacity="1" fill-rule="evenodd"/></g><path fill="#004aad" d="M 136.300781 138.253906 C 136.300781 144.820312 130.976562 150.140625 124.410156 150.140625 C 117.84375 150.140625 112.523438 144.820312 112.523438 138.253906 C 112.523438 131.6875 117.84375 126.363281 124.410156 126.363281 C 130.976562 126.363281 136.300781 131.6875 136.300781 138.253906 Z M 136.300781 138.253906 " fill-opacity="1" fill-rule="nonzero"/><path fill="#004aad" d="M 256.007812 138.253906 C 256.007812 144.820312 250.6875 150.140625 244.121094 150.140625 C 237.554688 150.140625 232.230469 144.820312 232.230469 138.253906 C 232.230469 131.6875 237.554688 126.363281 244.121094 126.363281 C 250.6875 126.363281 256.007812 131.6875 256.007812 138.253906 Z M 256.007812 138.253906 " fill-opacity="1" fill-rule="nonzero"/><path fill="#004aad" d="M 119.4375 77.964844 C 119.4375 42.160156 148.460938 13.136719 184.265625 13.136719 C 220.070312 13.136719 249.09375 42.160156 249.09375 77.964844 L 249.09375 136.785156 L 238.894531 136.785156 L 238.894531 77.964844 C 238.894531 47.792969 214.4375 23.335938 184.265625 23.335938 C 154.09375 23.335938 129.636719 47.792969 129.636719 77.964844 L 129.636719 136.785156 L 119.4375 136.785156 Z M 119.4375 77.964844 " fill-opacity="1" fill-rule="evenodd"/><path fill="#004aad" d="M 132.609375 199.738281 C 132.609375 195.328125 136.183594 191.753906 140.589844 191.753906 L 227.941406 191.753906 C 232.347656 191.753906 235.921875 195.328125 235.921875 199.738281 L 235.921875 353.921875 C 235.921875 358.332031 232.347656 361.90625 227.941406 361.90625 L 140.589844 361.90625 C 136.183594 361.90625 132.609375 358.332031 132.609375 353.921875 Z M 138.339844 212.890625 C 138.339844 208.480469 141.914062 204.90625 146.320312 204.90625 L 222.210938 204.90625 C 226.617188 204.90625 230.191406 208.480469 230.191406 212.890625 L 230.191406 347.972656 C 230.191406 352.378906 226.617188 355.953125 222.210938 355.953125 L 146.320312 355.953125 C 141.914062 355.953125 138.339844 352.378906 138.339844 347.972656 Z M 161.0625 196.027344 C 159.882812 196.027344 158.925781 196.984375 158.925781 198.164062 C 158.925781 199.347656 159.882812 200.304688 161.0625 200.304688 L 207.46875 200.304688 C 208.648438 200.304688 209.605469 199.347656 209.605469 198.164062 C 209.605469 196.984375 208.648438 196.027344 207.46875 196.027344 Z M 161.0625 196.027344 " fill-opacity="1" fill-rule="evenodd"/></svg>